<svg xmlns="http://www.w3.org/2000/svg" version="1.1" xmlns:xlink="http://www.w3.org/1999/xlink" xmlns:svgjs="http://svgjs.dev/svgjs" viewBox="0 0 7.73646240234375 8.203317287156262"><g transform="matrix(0.8571428571428572,0,0,0.8571428571428572,1.1052089146205355,5.704475880763403)"><g transform="matrix(1,0,0,1,0,0)" clip-path="url(#SvgjsClipPath13093)"><g clip-path="url(#SvgjsClipPath1309130981360-b226-4de3-b3d0-a05d1e37871b)"><path d=" M 5.425767819700969 -1.9656229863803705 L 4.656140031884378 -2.4099158897294237 L 4.656140031884378 -2.2121099404054645 L 5.425767819700969 -1.7677045578403696 Z M 5.425767819700969 -1.6201543222420685 L 4.656140031884378 -2.0644922172775404 L 4.656140031884378 -1.866663772110372 L 5.425767819700969 -1.4223483729181052 Z M 5.425767819700969 -1.274798137319804 L 4.656140031884378 -1.7191135365120669 L 4.656140031884378 -1.5212850913448945 L 5.425767819700969 -1.076924700466222 Z M 5.425767819700969 -0.9293969607111263 L 4.656140031884378 -1.3736673682169744 L 4.656140031884378 -1.1758614188930148 L 5.425767819700969 -0.731478532171133 Z M 4.656140031884378 -2.557556108700557 L 5.425767819700969 -2.1132407095082946 L 5.425767819700969 -2.311046658832254 L 4.656140031884378 -2.755474537240554 Z M 1.833361626201365 -1.780324725879805 L 1.0637338383847745 -1.3360093266875421 L 1.0637338383847745 -0.3860773555624508 L 0.43187059437118214 -0.3860773555624508 L 0.43187059437118214 -0.25006748752961716 L 6.015181407581911 -0.25006748752961716 L 6.015181407581911 -0.3860773555624508 L 5.425790315544187 -0.3860773555624508 L 5.425790315544187 -0.5840407757888615 L 4.656162527727581 -1.0283561749811243 L 4.656162527727581 -0.8306402090299931 L 5.425790315544187 -0.38612234724886463 L 5.170192545020029 -0.38612234724886463 L 4.656207519413998 -0.6829100066860319 L 4.656207519413998 -0.4851940407349007 L 4.827558357125893 -0.38621233062169313 L 4.484856681702119 -0.38621233062169313 L 4.484856681702119 -3.3057903496267778 L 4.313505843990226 -3.4046595805239477 L 4.313505843990226 -0.38600986803282744 L 4.185706958728156 -0.38600986803282744 L 4.185706958728156 -3.478423450401494 L 4.014446104389098 -3.5774051605147013 L 4.014446104389098 -0.3860323638760361 L 3.8865797315974078 -0.3860323638760361 L 3.8865797315974078 -5.326794407549599 L 3.117019431310421 -4.88247900835734 L 3.117019431310421 -4.281547548754136 L 3.7154088606311704 -4.627016212892434 L 3.7154088606311704 -0.3858973888167938 L 3.544058022919292 -0.3858973888167938 L 3.544058022919292 -4.298869348023942 L 2.774407739259469 -3.854553948831679 L 2.774407739259469 -0.38600986803282744 L 2.6030569015475904 -0.38600986803282744 L 2.6030569015475904 -3.013974271538478 L 1.8335190971038047 -2.569568888973387 L 1.8335190971038047 -1.97176435157603 L 2.431773551365316 -1.6263856708105604 L 2.431773551365316 -0.38600986803283543 L 1.8335190971038047 -0.38600986803283543 Z" fill="#64c6c4" transform="matrix(1,0,0,1,0,0)" fill-rule="evenodd"></path></g></g><g><path d=" M 0.336 1.1715 Q 0.024 1.1715 0.024 0.9555 Q 0.024 0.9255000000000001 0.03 0.891 L 0.0615 0.7050000000000001 Q 0.08700000000000001 0.561 0.19425 0.48375 Q 0.3015 0.4065000000000001 0.47850000000000004 0.4065000000000001 Q 0.78 0.4065000000000001 0.78 0.6345000000000001 Q 0.78 0.6675000000000001 0.774 0.7065000000000001 L 0.756 0.8130000000000001 L 0.2985 0.8130000000000001 L 0.2925 0.8475000000000001 Q 0.2895 0.8655 0.2895 0.8805000000000001 Q 0.2895 0.9630000000000001 0.387 0.9630000000000001 Q 0.423 0.9630000000000001 0.4485 0.9405000000000001 Q 0.47400000000000003 0.918 0.47850000000000004 0.8880000000000001 L 0.7275 0.891 Q 0.678 1.1715 0.336 1.1715 M 0.516 0.7215 Q 0.522 0.6960000000000001 0.522 0.67425 Q 0.522 0.6525000000000001 0.5025000000000001 0.6300000000000001 Q 0.483 0.6075 0.44025000000000003 0.6075 Q 0.3975 0.6075 0.36225 0.6360000000000001 Q 0.327 0.6645000000000001 0.3135 0.7215 L 0.516 0.7215 M 1.1430029296875 0.8430000000000001 Q 1.1430029296875 0.9465000000000001 1.2922529296875 0.9465000000000001 Q 1.4415029296875002 0.9465000000000001 1.4415029296875002 0.8535000000000001 Q 1.4415029296875002 0.804 1.3905029296875 0.7725000000000001 Q 1.3395029296875 0.7410000000000001 1.2667529296875 0.7200000000000001 Q 1.1940029296875 0.6990000000000001 1.1212529296875 0.6712500000000001 Q 1.0485029296875 0.6435000000000001 0.9975029296875 0.58425 Q 0.9465029296875 0.525 0.9465029296875 0.4365000000000001 Q 0.9465029296875 0.06000000000000005 1.4310029296875 0.06000000000000005 Q 1.6080029296875 0.06000000000000005 1.6987529296875001 0.12675000000000014 Q 1.7895029296875 0.1935 1.7895029296875 0.31200000000000006 Q 1.7895029296875 0.35550000000000004 1.7782529296875 0.3952500000000001 Q 1.7670029296875 0.43500000000000005 1.7550029296875 0.4515 L 1.7430029296875 0.46950000000000003 L 1.4775029296875 0.46950000000000003 Q 1.5105029296875 0.43500000000000005 1.5105029296875 0.38250000000000006 Q 1.5105029296875 0.28500000000000003 1.3830029296875002 0.28500000000000003 Q 1.2225029296875 0.28500000000000003 1.2225029296875 0.387 Q 1.2225029296875 0.43800000000000006 1.2735029296875 0.4680000000000001 Q 1.3245029296875 0.4980000000000001 1.3972529296875 0.5152500000000001 Q 1.4700029296875 0.5325000000000001 1.5435029296875 0.558 Q 1.6170029296875001 0.5835 1.6680029296874999 0.64275 Q 1.7190029296875 0.7020000000000001 1.7190029296875 0.7965000000000001 Q 1.7190029296875 0.9870000000000001 1.6050029296875001 1.07925 Q 1.4910029296875 1.1715 1.2540029296875 1.1715 Q 1.0170029296875 1.1715 0.9300029296875 1.0875000000000001 Q 0.8655029296875 1.0245000000000002 0.8655029296875 0.9135000000000001 Q 0.8655029296875 0.8715 0.8745029296875 0.8220000000000001 L 0.8790029296875 0.798 L 1.1490029296875 0.798 L 1.1460029296875 0.8160000000000001 Q 1.1430029296875 0.8310000000000001 1.1430029296875 0.8430000000000001 M 2.281518310546875 0.40800000000000003 Q 2.443518310546875 0.40800000000000003 2.526018310546875 0.47850000000000004 Q 2.5905183105468748 0.534 2.5905183105468748 0.6330000000000001 Q 2.5905183105468748 0.6660000000000001 2.583018310546875 0.7050000000000001 L 2.551518310546875 0.8805000000000001 Q 2.523018310546875 1.0395 2.418768310546875 1.1055000000000001 Q 2.314518310546875 1.1715 2.140518310546875 1.1715 Q 1.966518310546875 1.1715 1.885518310546875 1.1055000000000001 Q 1.825518310546875 1.056 1.825518310546875 0.9570000000000001 Q 1.825518310546875 0.9225000000000001 1.833018310546875 0.8805000000000001 L 1.864518310546875 0.7050000000000001 Q 1.917018310546875 0.40800000000000003 2.281518310546875 0.40800000000000003 M 2.3220183105468752 0.7350000000000001 Q 2.325018310546875 0.7200000000000001 2.325018310546875 0.6967500000000001 Q 2.325018310546875 0.6735 2.305518310546875 0.645 Q 2.2860183105468748 0.6165 2.237268310546875 0.6165 Q 2.188518310546875 0.6165 2.155518310546875 0.64875 Q 2.122518310546875 0.681 2.113518310546875 0.7350000000000001 L 2.094018310546875 0.8475000000000001 Q 2.091018310546875 0.8625 2.091018310546875 0.88575 Q 2.091018310546875 0.909 2.110518310546875 0.936 Q 2.130018310546875 0.9630000000000001 2.178768310546875 0.9630000000000001 Q 2.227518310546875 0.9630000000000001 2.260518310546875 0.9292500000000001 Q 2.293518310546875 0.8955000000000001 2.302518310546875 0.8475000000000001 L 2.3220183105468752 0.7350000000000001 M 2.98205712890625 1.1715 Q 2.67005712890625 1.1715 2.67005712890625 0.9555 Q 2.67005712890625 0.9255000000000001 2.67605712890625 0.891 L 2.70755712890625 0.7050000000000001 Q 2.73155712890625 0.561 2.83880712890625 0.48450000000000004 Q 2.94605712890625 0.40800000000000003 3.11105712890625 0.4065000000000001 Q 3.43055712890625 0.4065000000000001 3.43055712890625 0.6285000000000001 Q 3.43055712890625 0.6765000000000001 3.41930712890625 0.71475 Q 3.40805712890625 0.7530000000000001 3.39605712890625 0.7665000000000001 L 3.38405712890625 0.7815000000000001 L 3.12905712890625 0.7815000000000001 Q 3.16655712890625 0.7485 3.16655712890625 0.7035 Q 3.16655712890625 0.6225 3.08555712890625 0.6225 Q 3.03755712890625 0.6225 3.00305712890625 0.651 Q 2.96855712890625 0.6795 2.95805712890625 0.738 L 2.93855712890625 0.8475000000000001 Q 2.93555712890625 0.8625 2.93555712890625 0.8760000000000001 Q 2.93555712890625 0.9555 3.03455712890625 0.9555 Q 3.06755712890625 0.9555 3.09380712890625 0.9345000000000001 Q 3.12005712890625 0.9135000000000001 3.12455712890625 0.8880000000000001 L 3.37355712890625 0.891 Q 3.32405712890625 1.1715 2.98205712890625 1.1715 M 3.820538818359375 0.9585000000000001 Q 3.855038818359375 0.9585000000000001 3.882038818359375 0.9435 L 3.874538818359375 1.113 Q 3.804038818359375 1.1715 3.714038818359375 1.1715 Q 3.577538818359375 1.1715 3.537038818359375 1.1085 Q 3.510038818359375 1.0665 3.510038818359375 1.01925 Q 3.510038818359375 0.9720000000000001 3.516038818359375 0.936 L 3.606038818359375 0.42900000000000005 L 3.861038818359375 0.42900000000000005 L 3.777038818359375 0.9015000000000001 Q 3.775538818359375 0.9105000000000001 3.775538818359375 0.918 Q 3.775538818359375 0.9585000000000001 3.820538818359375 0.9585000000000001 M 3.636038818359375 0.1845000000000001 Q 3.636038818359375 0.08850000000000002 3.678788818359375 0.04425000000000012 Q 3.721538818359375 0 3.811538818359375 0 Q 3.937538818359375 0 3.937538818359375 0.11099999999999999 Q 3.937538818359375 0.20550000000000002 3.894788818359375 0.2490000000000001 Q 3.8520388183593752 0.2925000000000001 3.760538818359375 0.2925000000000001 Q 3.636038818359375 0.2925000000000001 3.636038818359375 0.1845000000000001 M 4.276521240234375 1.1715 Q 3.964521240234375 1.1715 3.964521240234375 0.9555 Q 3.964521240234375 0.9255000000000001 3.970521240234375 0.891 L 4.002021240234375 0.7050000000000001 Q 4.027521240234375 0.561 4.134771240234375 0.48375 Q 4.242021240234375 0.4065000000000001 4.419021240234375 0.4065000000000001 Q 4.720521240234375 0.4065000000000001 4.720521240234375 0.6345000000000001 Q 4.720521240234375 0.6675000000000001 4.714521240234375 0.7065000000000001 L 4.696521240234375 0.8130000000000001 L 4.239021240234375 0.8130000000000001 L 4.233021240234375 0.8475000000000001 Q 4.230021240234375 0.8655 4.230021240234375 0.8805000000000001 Q 4.230021240234375 0.9630000000000001 4.3275212402343755 0.9630000000000001 Q 4.363521240234375 0.9630000000000001 4.389021240234375 0.9405000000000001 Q 4.414521240234375 0.918 4.419021240234375 0.8880000000000001 L 4.668021240234375 0.891 Q 4.618521240234375 1.1715 4.276521240234375 1.1715 M 4.456521240234375 0.7215 Q 4.462521240234375 0.6960000000000001 4.462521240234375 0.67425 Q 4.462521240234375 0.6525000000000001 4.443021240234375 0.6300000000000001 Q 4.423521240234375 0.6075 4.380771240234375 0.6075 Q 4.338021240234375 0.6075 4.302771240234375 0.6360000000000001 Q 4.267521240234375 0.6645000000000001 4.254021240234375 0.7215 L 4.456521240234375 0.7215 M 5.122524169921875 1.1715 Q 4.948524169921875 1.1715 4.872024169921875 1.0935000000000001 Q 4.815024169921875 1.0365 4.815024169921875 0.9405000000000001 Q 4.815024169921875 0.909 4.821024169921875 0.873 L 4.923024169921875 0.2925000000000001 L 5.197524169921875 0.1785000000000001 L 5.154024169921875 0.42900000000000005 L 5.568024169921875 0.42900000000000005 L 5.5305241699218755 0.6405000000000001 L 5.116524169921875 0.6405000000000001 L 5.086524169921875 0.81 Q 5.080524169921875 0.8385 5.080524169921875 0.8610000000000001 Q 5.080524169921875 0.9555 5.170524169921875 0.9555 Q 5.218524169921875 0.9555 5.250774169921875 0.915 Q 5.283024169921875 0.8745 5.295024169921875 0.807 L 5.544024169921875 0.807 Q 5.481024169921875 1.1715 5.122524169921875 1.1715 M 5.911541015625 0.8280000000000001 Q 5.907041015625 0.8550000000000001 5.907041015625 0.8820000000000001 Q 5.907041015625 0.9540000000000001 5.988041015625 0.9540000000000001 Q 6.054041015625 0.9540000000000001 6.097541015625 0.9075000000000001 L 6.181541015625 0.42900000000000005 L 6.436541015625 0.42900000000000005 L 6.304541015625 1.1745 Q 6.271541015625 1.365 6.153791015625 1.476 Q 6.036041015625 1.5870000000000002 5.884541015625 1.5870000000000002 Q 5.733041015625 1.5870000000000002 5.666291015625 1.5315 Q 5.599541015625 1.476 5.599541015625 1.3860000000000001 Q 5.599541015625 1.2585000000000002 5.757041015625 1.1595 Q 5.671541015625 1.1385 5.649041015625 1.074 Q 5.635541015625 1.038 5.635541015625 0.9930000000000001 Q 5.635541015625 0.9480000000000001 5.643041015625 0.9015000000000001 L 5.727041015625 0.42900000000000005 L 5.982041015625 0.42900000000000005 L 5.911541015625 0.8280000000000001 M 5.919041015625 1.3725 Q 6.016541015625 1.3725 6.046541015625 1.1955 L 6.061541015625 1.1085 Q 5.853041015625 1.2060000000000002 5.853041015625 1.3050000000000002 Q 5.853041015625 1.335 5.870291015625 1.35375 Q 5.887541015625 1.3725 5.919041015625 1.3725" fill="#ffffff" fill-rule="nonzero"></path></g><g></g></g><defs><clipPath id="SvgjsClipPath13093"><path d=" M 0.431870594371198 -5.326906886765636 h 5.583310813210729 v 5.076906886765636 h -5.583310813210729 Z"></path></clipPath><clipPath id="SvgjsClipPath1309130981360-b226-4de3-b3d0-a05d1e37871b"><path d=" M 0.431870594371198 -5.326906886765636 L 6.015181407581927 -5.326906886765636 L 6.015181407581927 -0.25 L 0.431870594371198 -0.25 Z"></path></clipPath></defs></svg>